<?xml version="1.0" encoding="utf-8"?>
<!-- Generator: Adobe Illustrator 25.4.1, SVG Export Plug-In . SVG Version: 6.00 Build 0)  -->
<svg version="1.1" id="Your_Icons" xmlns="http://www.w3.org/2000/svg" xmlns:xlink="http://www.w3.org/1999/xlink" x="0px" y="0px"
	 viewBox="0 0 48 48" style="enable-background:new 0 0 48 48;" xml:space="preserve">
<style type="text/css">
	.st0{fill:none;stroke:#C10000;stroke-width:2;stroke-miterlimit:10;}
	.st1{fill:#FFFFFF;}
	.st2{fill:#8FBFD1;}
	.st3{fill:#428FD1;}
	.st4{fill:#FF0000;}
	.st5{fill:#C10000;}
	.st6{fill:none;}
	.st7{fill:none;stroke:#000000;stroke-width:2;stroke-miterlimit:10;}
</style>
<path class="st0" d="M21.8,18.3c-0.5,1.3-1.1,2.7-1.9,4c-0.5,0.9-1,1.7-1.5,2.5c-0.2,0.4-0.5,0.8-0.7,1.1c-0.8,1.2-2.1,1.7-3.3,1.5
	c-0.9-0.1-1.7-0.6-2.3-1.5c-0.8-1.1-1.6-2.3-2.4-3.6c-0.8-1.3-1.5-2.7-2.1-4c-2.8-6.2-3.4-12-1.1-13.8c1.4-1.1,3.7-1.3,6,0.4
	c1.2,0.9,2.6,1.6,3.7,0.7c2.3-1.8,4.4-2.3,5.8-1.2C24.6,6.3,24.3,12,21.8,18.3z"/>
<rect x="12.8" y="2.8" class="st1" width="4.3" height="5.1"/>
<g>
	<path class="st2" d="M20.4,7.4c-1.6,0-2.9-1.3-2.9-3c0-1.6,1.3-3,2.9-3c0.6,0,1.2,0.2,1.7,0.5c1.3,0.1,2.4,1.2,2.4,2.6
		c0,1.4-1.1,2.6-2.5,2.6c-0.1,0-0.1,0-0.2,0C21.3,7.3,20.9,7.4,20.4,7.4z"/>
	<g>
		<path class="st3" d="M20.4,2.5c0.5,0,1,0.2,1.3,0.5c0.1,0,0.1,0,0.2,0c0.8,0,1.5,0.7,1.5,1.6c0,0.9-0.7,1.6-1.5,1.6
			c-0.1,0-0.3,0-0.4-0.1c-0.3,0.2-0.7,0.4-1.1,0.4c-1.1,0-1.9-0.9-1.9-2S19.3,2.5,20.4,2.5 M20.4,0.5c-2.2,0-3.9,1.8-3.9,4
			c0,2.2,1.8,4,3.9,4c0.5,0,1.1-0.1,1.5-0.3c0,0,0,0,0,0c1.9,0,3.5-1.6,3.5-3.6c0-1.8-1.3-3.3-3.1-3.5C21.8,0.7,21.1,0.5,20.4,0.5
			L20.4,0.5z"/>
	</g>
</g>
<g>
	<g>
		<path class="st2" d="M9.4,7.1c-0.6,0-1.2-0.2-1.7-0.5C6.3,6.5,5.2,5.4,5.2,4c0-1.4,1.2-2.5,2.6-2.5c0.1,0,0.2,0,0.2,0
			c0.4-0.2,0.9-0.3,1.4-0.3c1.7,0,3,1.3,3,2.9C12.4,5.7,11,7.1,9.4,7.1z"/>
		<path class="st3" d="M9.4,2.2c1.1,0,2,0.9,2,1.9s-0.9,1.9-2,1.9c-0.5,0-1-0.2-1.4-0.5c-0.1,0-0.1,0-0.2,0C6.9,5.6,6.2,4.9,6.2,4
			s0.7-1.5,1.6-1.5c0.1,0,0.3,0,0.4,0.1C8.5,2.3,8.9,2.2,9.4,2.2 M9.4,0.2c-0.5,0-1.1,0.1-1.6,0.3c0,0,0,0,0,0c-2,0-3.6,1.6-3.6,3.5
			c0,1.8,1.4,3.3,3.2,3.5c0.6,0.3,1.3,0.5,2,0.5c2.2,0,4-1.8,4-3.9S11.6,0.2,9.4,0.2L9.4,0.2z"/>
	</g>
</g>
<path class="st0" d="M14.9,27.5c0,0,0.1,1.4,0.3,3.3c0.6,4.3,2.4,11.5,7,12.8c0,0,7.8,2.1,10.5-3.9c0,0,4.7-8.4-0.3-14.3l-6.7-6.5"
	/>
<g>
	<g>
		<path class="st2" d="M28.9,25c-1.9,0-3.5-1.7-3.5-3.7s1.6-3.7,3.5-3.7s3.5,1.7,3.5,3.7S30.8,25,28.9,25z"/>
		<g>
			<path class="st3" d="M28.9,18.6c1.4,0,2.5,1.2,2.5,2.7S30.3,24,28.9,24s-2.5-1.2-2.5-2.7S27.6,18.6,28.9,18.6 M28.9,16.6
				c-2.5,0-4.5,2.1-4.5,4.7s2,4.7,4.5,4.7s4.5-2.1,4.5-4.7S31.4,16.6,28.9,16.6L28.9,16.6z"/>
		</g>
	</g>
	<g>
		<path class="st4" d="M28.9,21.6c-0.1,0-0.2-0.1-0.2-0.3s0.1-0.3,0.2-0.3c0.1,0,0.2,0.1,0.2,0.3S29,21.6,28.9,21.6z"/>
		<path class="st5" d="M28.9,20c-0.7,0-1.2,0.6-1.2,1.3s0.5,1.3,1.2,1.3s1.2-0.6,1.2-1.3S29.6,20,28.9,20L28.9,20z"/>
	</g>
</g>
<path class="st6" d="M23.8,10.2"/>
<path class="st7" d="M21.8,18.3"/>
<path class="st7" d="M22.2,4.4"/>
</svg>
