<?xml version="1.0" encoding="utf-8"?>
<!-- Generator: Adobe Illustrator 25.4.1, SVG Export Plug-In . SVG Version: 6.00 Build 0)  -->
<svg version="1.1" id="Your_Icons" xmlns="http://www.w3.org/2000/svg" xmlns:xlink="http://www.w3.org/1999/xlink" x="0px" y="0px"
	 viewBox="0 0 48 48" style="enable-background:new 0 0 48 48;" xml:space="preserve">
<style type="text/css">
	.st0{fill:none;stroke:#C10000;stroke-width:1.5;stroke-miterlimit:10;}
	.st1{fill:#FFFFFF;}
	.st2{fill:#8FBFD1;}
	.st3{fill:#428FD1;}
	.st4{fill:#FF0000;}
	.st5{fill:#C10000;}
	.st6{fill:none;}
	.st7{fill:none;stroke:#000000;stroke-width:8;stroke-miterlimit:10;}
</style>
<g>
	<path class="st0" d="M25.2,18.4c-0.5,1.3-1.1,2.7-1.9,4c-0.5,0.9-1,1.7-1.5,2.5c-0.2,0.4-0.5,0.8-0.7,1.1c-0.8,1.2-2.1,1.7-3.3,1.5
		c-0.9-0.1-1.7-0.6-2.3-1.5c-0.8-1.1-1.6-2.3-2.4-3.6c-0.8-1.3-1.5-2.7-2.1-4C8.2,12.3,7.7,6.5,10,4.6c1.4-1.1,3.7-1.3,6,0.4
		c1.2,0.9,2.6,1.6,3.7,0.7C22,4,24.1,3.4,25.5,4.5C27.9,6.3,27.6,12.1,25.2,18.4z"/>
	<rect x="16.1" y="2.9" class="st1" width="4.3" height="5.1"/>
	<g>
		<path class="st2" d="M20.8,6.8c-1.3,0-2.4-1-2.4-2.3s1.1-2.3,2.4-2.3c0.5,0,1,0.1,1.4,0.4c1.1,0,2,0.9,2,2c0,1.1-0.9,2-2,2
			c-0.1,0-0.1,0-0.2,0C21.6,6.7,21.2,6.8,20.8,6.8z"/>
		<g>
			<path class="st3" d="M20.8,2.9c0.4,0,0.8,0.2,1.1,0.4c0.1,0,0.1,0,0.2,0c0.7,0,1.3,0.6,1.3,1.2c0,0.7-0.6,1.2-1.3,1.2
				c-0.1,0-0.2,0-0.3,0C21.5,5.9,21.2,6,20.8,6c-0.9,0-1.6-0.7-1.6-1.6S19.9,2.9,20.8,2.9 M20.8,1.4c-1.7,0-3.1,1.4-3.1,3.1
				s1.4,3.1,3.1,3.1c0.4,0,0.8-0.1,1.2-0.2c0,0,0,0,0,0c1.5,0,2.8-1.2,2.8-2.7c0-1.4-1.1-2.6-2.5-2.7C22,1.5,21.4,1.4,20.8,1.4
				L20.8,1.4z"/>
		</g>
	</g>
	<g>
		<path class="st2" d="M14.5,6.8c-0.5,0-0.9-0.1-1.3-0.4c-1.1,0-1.9-0.9-1.9-2c0-1.1,0.9-2,2-2c0.1,0,0.1,0,0.2,0
			c0.3-0.2,0.7-0.2,1.1-0.2c1.3,0,2.3,1,2.3,2.3S15.8,6.8,14.5,6.8z"/>
		<path class="st3" d="M14.5,3c0.9,0,1.6,0.7,1.6,1.5S15.3,6,14.5,6c-0.4,0-0.8-0.2-1.1-0.4c-0.1,0-0.1,0-0.2,0
			c-0.7,0-1.3-0.5-1.3-1.2c0-0.7,0.6-1.2,1.3-1.2c0.1,0,0.2,0,0.3,0C13.8,3.1,14.1,3,14.5,3 M14.5,1.5c-0.4,0-0.8,0.1-1.2,0.2
			c0,0,0,0,0,0c-1.5,0-2.8,1.2-2.8,2.7c0,1.4,1.1,2.5,2.4,2.7c0.5,0.3,1,0.4,1.6,0.4c1.7,0,3.1-1.4,3.1-3S16.2,1.5,14.5,1.5
			L14.5,1.5z"/>
	</g>
	<path class="st0" d="M18.2,27.6c0,0,0.1,1.4,0.3,3.3c0.6,4.3,2.4,11.5,7,12.8c0,0,7.8,2.1,10.5-3.9c0,0,3.9-9.4-1.1-15.3
		c0,0-1.5-2-4.9-2.7c-4.4-0.9-25.7,0-25.6,0"/>
	<g>
		<g>
			<ellipse class="st2" cx="4.5" cy="21.8" rx="2.6" ry="2.8"/>
			<g>
				<path class="st3" d="M4.5,19.8c1,0,1.8,0.9,1.8,2s-0.8,2-1.8,2s-1.8-0.9-1.8-2S3.5,19.8,4.5,19.8 M4.5,18.3
					c-1.8,0-3.3,1.6-3.3,3.5s1.5,3.5,3.3,3.5s3.3-1.6,3.3-3.5S6.3,18.3,4.5,18.3L4.5,18.3z"/>
			</g>
		</g>
		<g>
			<path class="st4" d="M4.5,22c-0.1,0-0.1-0.1-0.1-0.2s0.1-0.2,0.1-0.2s0.1,0.1,0.1,0.2S4.6,22,4.5,22z"/>
			<path class="st5" d="M4.5,20.8c-0.5,0-0.9,0.4-0.9,1s0.4,1,0.9,1s0.9-0.4,0.9-1S5,20.8,4.5,20.8L4.5,20.8z"/>
		</g>
	</g>
</g>
<path class="st6" d="M27.8,10.2"/>
<path class="st7" d="M25.8,18.3"/>
<path class="st7" d="M26.2,4.4"/>
</svg>
